<svg width="499" height="252" viewBox="0 0 499 252" fill="none" xmlns="http://www.w3.org/2000/svg">
<path fill-rule="evenodd" clip-rule="evenodd" d="M216.022 148.656C214.966 149.893 213.209 151.5 210.787 151.5C208.098 151.5 205.807 150.339 203.938 148.79C202.094 147.261 200.474 145.207 199.02 142.997C196.599 139.319 194.275 134.629 191.993 130.024C191.557 129.144 191.122 128.266 190.689 127.399C187.904 121.834 185.126 116.617 182.035 112.795C178.92 108.942 176.022 107.167 173.098 107.167C170.36 107.167 167.813 108.883 164.931 113.013C162.624 116.319 160.553 120.503 158.249 125.155C157.671 126.323 157.078 127.521 156.463 128.742C153.501 134.619 150.076 140.911 145.533 145.725C140.89 150.644 134.936 154.167 127.072 154.167C112.447 154.167 99.4382 145.233 87.7758 137.218L87.2855 136.881C81.4711 132.884 75.934 129.077 70.3634 126.218C64.6615 123.292 59.183 121.5 53.6957 121.5C34.5418 121.5 13.7021 130.521 5.72698 135.044C4.04564 135.998 1.90951 135.408 0.955789 133.727C0.00207087 132.046 0.591924 129.909 2.27326 128.956C10.7521 124.146 32.8264 114.5 53.6957 114.5C60.7157 114.5 67.3275 116.792 73.5597 119.99C79.5388 123.059 85.4058 127.093 91.0915 131.003C91.3082 131.152 91.5247 131.3 91.7408 131.449C103.842 139.767 115.014 147.167 127.072 147.167C132.548 147.167 136.767 144.814 140.442 140.921C144.215 136.922 147.253 131.464 150.211 125.592C150.758 124.507 151.304 123.402 151.854 122.291C154.176 117.594 156.552 112.789 159.191 109.008C162.458 104.325 166.831 100.167 173.098 100.167C179.18 100.167 183.87 103.933 187.478 108.393C191.109 112.883 194.189 118.75 196.949 124.267C197.416 125.201 197.873 126.123 198.323 127.03C200.612 131.645 202.704 135.863 204.867 139.148C206.148 141.095 207.324 142.504 208.405 143.4C209.222 144.077 209.863 144.365 210.372 144.46C210.456 144.38 210.565 144.267 210.699 144.11C211.326 143.375 212.118 142.123 213.042 140.258C214.875 136.56 216.902 131.135 219.067 124.425C223.386 111.042 228.071 93.1488 232.747 75.1212C233.003 74.1353 233.259 73.149 233.514 72.163C237.916 55.1856 242.291 38.3146 246.279 25.4625C248.385 18.68 250.426 12.8722 252.354 8.71463C253.31 6.65428 254.317 4.8244 255.39 3.45651C256.3 2.29776 257.998 0.5 260.483 0.5C262.451 0.5 263.717 1.76407 264.313 2.50437C264.981 3.3332 265.506 4.35864 265.936 5.37417C266.812 7.44114 267.637 10.295 268.434 13.6833C270.039 20.5103 271.677 30.1665 273.347 41.62C276.13 60.7056 279.042 85.0794 282.054 110.281C282.66 115.36 283.271 120.472 283.886 125.582C287.556 156.096 291.361 186.509 295.263 209.284C297.217 220.691 299.174 230.049 301.116 236.508C302.095 239.763 303.015 242.088 303.834 243.534C303.925 243.694 304.01 243.836 304.089 243.96C304.737 243.144 305.513 241.749 306.364 239.652C308.062 235.465 309.736 229.312 311.402 221.68C314.284 208.486 317.025 191.458 319.87 173.792C320.307 171.075 320.747 168.343 321.19 165.607C324.5 145.178 327.994 124.557 332.018 109.028C334.024 101.289 336.214 94.5976 338.676 89.7746C339.905 87.3686 341.295 85.2357 342.913 83.6622C344.549 82.0717 346.657 80.8333 349.201 80.8333C356.552 80.8333 361.519 86.3603 365.034 92.5537C368.623 98.8785 371.434 107.182 374.037 115.07C374.202 115.571 374.367 116.07 374.531 116.567C377.009 124.088 379.332 131.141 382.053 136.458C385.098 142.411 387.793 144.5 390.225 144.5C393.456 144.5 396.867 142.573 400.656 138.644C404.399 134.761 407.974 129.491 411.597 123.924C412.063 123.208 412.531 122.485 413 121.76C416.086 116.993 419.229 112.137 422.385 108.352C424.217 106.155 426.179 104.16 428.288 102.696C430.408 101.225 432.857 100.167 435.585 100.167C438.4 100.167 440.826 101.336 442.849 102.951C444.842 104.544 446.609 106.695 448.213 109.026C450.654 112.572 453.05 117.048 455.443 121.517C456.156 122.85 456.87 124.182 457.584 125.488C460.789 131.355 464.091 136.88 467.878 140.933C471.629 144.948 475.521 147.167 479.944 147.167C484.858 147.167 489.666 145.444 494.692 142.575C499.399 139.888 504.043 136.353 509.001 132.577C509.378 132.291 509.756 132.003 510.136 131.714C520.61 123.75 532.615 114.833 547.316 114.833H547.342C557.051 114.833 564.988 114.833 577.65 117.228C579.55 117.587 580.798 119.418 580.439 121.317C580.08 123.216 578.249 124.465 576.35 124.106C564.343 121.835 556.94 121.833 547.316 121.833C535.335 121.833 525.161 129.084 514.372 137.286C513.969 137.593 513.565 137.9 513.16 138.209C508.297 141.914 503.292 145.726 498.162 148.654C492.568 151.848 486.536 154.167 479.944 154.167C472.859 154.167 467.246 150.511 462.763 145.712C458.316 140.953 454.656 134.728 451.441 128.845C450.642 127.383 449.873 125.948 449.127 124.555C446.778 120.171 444.645 116.188 442.447 112.995C441.018 110.919 439.705 109.399 438.48 108.421C437.284 107.466 436.354 107.167 435.585 107.167C434.726 107.167 433.653 107.494 432.28 108.447C430.896 109.407 429.395 110.876 427.761 112.835C424.899 116.267 422.017 120.717 418.899 125.53C418.427 126.26 417.948 126.998 417.464 127.742C413.874 133.259 409.966 139.072 405.695 143.502C401.468 147.885 396.333 151.5 390.225 151.5C383.318 151.5 378.883 145.631 375.821 139.646C372.841 133.822 370.353 126.265 367.941 118.936C367.757 118.377 367.573 117.819 367.39 117.264C364.74 109.235 362.131 101.621 358.946 96.0088C355.686 90.2647 352.523 87.8333 349.201 87.8333C349.076 87.8333 348.623 87.8736 347.793 88.6806C346.946 89.5045 345.967 90.8879 344.911 92.9572C342.804 97.0847 340.765 103.18 338.795 110.784C334.866 125.943 331.419 146.238 328.1 166.726C327.659 169.447 327.221 172.17 326.784 174.885C323.945 192.522 321.168 209.773 318.241 223.174C316.557 230.886 314.783 237.52 312.85 242.283C311.891 244.647 310.81 246.764 309.542 248.349C308.321 249.875 306.435 251.5 303.841 251.5C302.172 251.5 300.861 250.71 299.96 249.892C299.068 249.083 298.345 248.046 297.744 246.986C296.538 244.857 295.441 241.94 294.413 238.524C292.342 231.638 290.328 221.934 288.364 210.466C284.427 187.491 280.603 156.904 276.936 126.418C276.319 121.29 275.707 116.165 275.099 111.078C272.087 85.8749 269.189 61.6162 266.421 42.63C264.755 31.2085 263.152 21.8022 261.62 15.2854C261.021 12.7376 260.455 10.7288 259.932 9.25235C259.56 9.90317 259.149 10.7018 258.704 11.6604C256.98 15.3778 255.05 20.82 252.965 27.5375C249.027 40.2246 244.692 56.9453 240.271 73.9958C240.022 74.956 239.772 75.9172 239.523 76.8788C234.861 94.8512 230.123 112.958 225.729 126.575C223.538 133.365 221.384 139.19 219.314 143.367C218.287 145.439 217.196 147.281 216.022 148.656ZM261.37 7.26912C261.37 7.26912 261.357 7.28122 261.332 7.29747C261.357 7.27591 261.37 7.26912 261.37 7.26912ZM258.838 6.86798C258.838 6.86798 258.846 6.87567 258.862 6.89553C258.846 6.87865 258.838 6.86798 258.838 6.86798ZM303.483 244.568C303.483 244.568 303.489 244.563 303.503 244.557C303.49 244.565 303.483 244.568 303.483 244.568ZM210.164 144.633C210.164 144.633 210.17 144.628 210.182 144.622C210.17 144.63 210.164 144.633 210.164 144.633Z" fill="url(#paint0_linear_3_218)" fill-opacity="0.2"/>
<defs>
<linearGradient id="paint0_linear_3_218" x1="8.70229" y1="243.476" x2="572.298" y2="243.476" gradientUnits="userSpaceOnUse">
<stop offset="0.0395832" stop-color="#8C40E3" stop-opacity="0"/>
<stop offset="0.315625" stop-color="#8C34DD"/>
<stop offset="0.492708" stop-color="#A52ABD"/>
<stop offset="0.732292" stop-color="#D52689"/>
<stop offset="0.951042" stop-color="#ED6697" stop-opacity="0"/>
</linearGradient>
</defs>
</svg>
